grf
version=1
nRows=6
nColumns=37
inDegrees=no
endheader
time	ground_force_1_vx	ground_force_1_vy	ground_force_1_vz	ground_force_1_px	ground_force_1_py	ground_force_1_pz	ground_moment_1_mx	ground_moment_1_my	ground_moment_1_mz	ground_force_2_vx	ground_force_2_vy	ground_force_2_vz	ground_force_2_px	ground_force_2_py	ground_force_2_pz	ground_moment_2_mx	ground_moment_2_my	ground_moment_2_mz	ground_force_3_vx	ground_force_3_vy	ground_force_3_vz	ground_force_3_px	ground_force_3_py	ground_force_3_pz	ground_moment_3_mx	ground_moment_3_my	ground_moment_3_mz	ground_force_4_vx	ground_force_4_vy	ground_force_4_vz	ground_force_4_px	ground_force_4_py	ground_force_4_pz	ground_moment_4_mx	ground_moment_4_my	ground_moment_4_mz
      3.77000000	      0.00000000	     -0.00000000	      0.00000000	      0.00000000	      0.00000000	      0.00000000	      0.00000000	      0.00000000	      0.00000000	     -3.83937550	     62.03144073	   -377.52307129	   -374.12552459	  -1200.20311097	      0.00000000	      0.00000000	     -0.00000000	   8253.17454853	     12.69035189	    -60.84895054	   -425.64059448	   -393.91020247	   -719.65066639	      0.00000000	      0.00000000	     -0.00000000	  -6386.07547633	      0.00000000	     -0.00000000	      0.00000000	      0.00000000	      0.00000000	      0.00000000	      0.00000000	      0.00000000	      0.00000000
      3.78000000	      0.00000000	     -0.00000000	      0.00000000	      0.00000000	      0.00000000	      0.00000000	      0.00000000	      0.00000000	      0.00000000	     -3.83605194	     62.91228485	   -379.28793335	   -373.65580950	  -1199.53368985	      0.00000000	      0.00000000	      0.00000000	   8460.79431504	     12.94850200	    -60.67862815	   -425.27951050	   -394.09115722	   -719.85115799	      0.00000000	      0.00000000	     -0.00000000	  -6421.82043458	      0.00000000	     -0.00000000	      0.00000000	      0.00000000	      0.00000000	      0.00000000	      0.00000000	      0.00000000	      0.00000000
      3.79000000	      0.00000000	     -0.00000000	      0.00000000	      0.00000000	      0.00000000	      0.00000000	      0.00000000	      0.00000000	      0.00000000	     -4.71917200	     62.49836731	   -380.38192749	   -375.25806189	  -1200.51483811	      0.00000000	      0.00000000	      0.00000000	   8256.71221447	     13.39020488	    -60.32711528	   -424.91754150	   -394.11427622	   -719.11718751	      0.00000000	      0.00000000	     -0.00000000	  -6587.54938192	      0.00000000	     -0.00000000	      0.00000000	      0.00000000	      0.00000000	      0.00000000	      0.00000000	      0.00000000	      0.00000000
      3.80000000	      0.00000000	     -0.00000000	      0.00000000	      0.00000000	      0.00000000	      0.00000000	      0.00000000	      0.00000000	      0.00000000	     -4.73187590	     63.18231201	   -381.43432617	   -373.67005322	  -1199.81043297	      0.00000000	      0.00000000	     -0.00000000	   8205.01331737	     13.39532327	    -60.05874751	   -425.92321777	   -394.02209584	   -718.75581202	      0.00000000	      0.00000000	     -0.00000000	  -6468.95789480	      0.00000000	     -0.00000000	      0.00000000	      0.00000000	      0.00000000	      0.00000000	      0.00000000	      0.00000000	      0.00000000
      3.81000000	      0.00000000	     -0.00000000	      0.00000000	      0.00000000	      0.00000000	      0.00000000	      0.00000000	      0.00000000	      0.00000000	     -4.21399498	     62.82926941	   -379.66845703	   -373.80117573	  -1200.19842430	      0.00000000	      0.00000000	     -0.00000000	   8324.68935004	     13.74833632	    -59.88574720	   -425.63024902	   -393.90728136	   -719.22827946	      0.00000000	     -0.00000000	     -0.00000000	  -6661.43014034	      0.00000000	     -0.00000000	      0.00000000	      0.00000000	      0.00000000	      0.00000000	      0.00000000	      0.00000000	      0.00000000
      3.82000000	      0.00000000	     -0.00000000	      0.00000000	      0.00000000	      0.00000000	      0.00000000	      0.00000000	      0.00000000	      0.00000000	     -4.71820164	     62.93004227	   -379.32312012	   -374.85405844	  -1199.71349594	      0.00000000	      0.00000000	      0.00000000	   8404.15115441	     13.58035423	    -59.79946637	   -424.91754150	   -393.69115189	   -719.66766199	      0.00000000	      0.00000000	     -0.00000000	  -6659.32224548	      0.00000000	     -0.00000000	      0.00000000	      0.00000000	      0.00000000	      0.00000000	      0.00000000	      0.00000000	      0.00000000
